<svg width="183" height="55" viewBox="0 0 183 55" fill="none" xmlns="http://www.w3.org/2000/svg">
<rect width="55" height="55" rx="10" fill="#3D94F3"/>
<path fill-rule="evenodd" clip-rule="evenodd" d="M34.9479 18.3333C34.9479 15.1692 37.513 12.6042 40.677 12.6041C43.8412 12.6041 46.4063 15.1691 46.4062 18.3333C46.4061 21.4974 43.8411 24.0624 40.677 24.0625C37.5129 24.0625 34.9478 21.4975 34.9479 18.3333ZM34.1137 24.3334C34.1121 24.3317 34.1105 24.3301 34.1088 24.3285C30.1802 20.3999 25.0521 18.2007 20.4165 17.1191C15.8302 16.0489 11.3359 15.9839 8.47162 16.7002C6.93682 17.0841 6.00378 18.6394 6.38762 20.1742C6.77146 21.709 8.32682 22.6421 9.86161 22.2582C11.5807 21.8283 15.1072 21.7633 19.1146 22.6983C21.9452 23.3588 24.8169 24.4733 27.3009 26.1323C26.1923 27.2884 24.7029 28.7064 23.0526 30.1275C20.5232 32.3056 17.8741 34.2665 15.9064 35.2504C15.6816 35.3627 15.4781 35.5007 15.2976 35.6589C12.5039 36.3089 9.73366 36.433 5.79983 34.5876C4.36753 33.9158 2.66174 34.5322 1.98986 35.9645C1.31797 37.3968 1.93442 39.1026 3.36673 39.7745C8.98982 42.4122 13.2523 42.0831 17.146 41.1058C18.27 40.8237 19.28 40.5232 20.2396 40.2378C22.645 39.5222 24.7327 38.9011 27.4999 38.9011C30.2776 38.9011 32.5274 39.5681 35.1024 40.3315L35.1025 40.3315C35.3516 40.4054 35.6038 40.4802 35.8598 40.5553C37.3778 41.0009 38.9696 40.1316 39.4152 38.6136C39.8608 37.0955 38.9915 35.5037 37.4735 35.0581C37.2187 34.9833 36.9584 34.9056 36.6924 34.8262C35.6813 34.5243 34.5886 34.198 33.4063 33.9156C34.0296 33.277 34.6452 32.6073 35.1633 31.9679C38.0163 33.3279 40.9563 33.8863 43.433 34.0799C45.4664 34.2388 47.265 34.1589 48.58 34.0416C49.2401 33.9827 49.7816 33.914 50.169 33.8608C50.2925 33.8439 50.4167 33.8262 50.5083 33.8131L50.6088 33.7988L50.6473 33.7935C52.1199 33.6762 53.2792 32.4449 53.2812 30.9418C53.2833 29.3597 52.0024 28.0755 50.4203 28.0735C50.2198 28.0732 50.0397 28.0955 50.0079 28.0995L50.0041 28.0999C49.938 28.1078 49.8685 28.1174 49.8127 28.1252L49.6677 28.1458L49.6674 28.1459C49.5866 28.1574 49.5017 28.1696 49.3895 28.185C49.0607 28.2301 48.6139 28.2867 48.0709 28.3351C46.9797 28.4325 45.5127 28.4958 43.8794 28.3681C40.5702 28.1095 36.8789 27.0955 34.1137 24.3334ZM50.6853 33.7885L50.7106 33.7856C50.7111 33.7855 50.7078 33.7858 50.7004 33.7866C50.6965 33.7871 50.6915 33.7877 50.6853 33.7885Z" fill="white"/>
<path d="M84.3395 23.4531C84.2732 22.8329 83.9938 22.3499 83.5014 22.0043C83.0137 21.6586 82.3793 21.4858 81.598 21.4858C81.0488 21.4858 80.5777 21.5687 80.1847 21.7344C79.7917 21.9001 79.491 22.125 79.2827 22.4091C79.0743 22.6932 78.9678 23.0175 78.9631 23.3821C78.9631 23.6851 79.0317 23.9479 79.169 24.1705C79.3111 24.393 79.5028 24.5824 79.7443 24.7386C79.9858 24.8902 80.2533 25.018 80.5469 25.1222C80.8404 25.2263 81.1364 25.3139 81.4347 25.3849L82.7983 25.7259C83.3475 25.8537 83.8755 26.0265 84.3821 26.2443C84.8935 26.4621 85.3504 26.7367 85.7528 27.0682C86.16 27.3996 86.482 27.7997 86.7188 28.2685C86.9555 28.7372 87.0739 29.2865 87.0739 29.9162C87.0739 30.7685 86.8561 31.5189 86.4205 32.1676C85.9848 32.8116 85.3551 33.3158 84.5312 33.6804C83.7121 34.0402 82.7202 34.2202 81.5554 34.2202C80.4238 34.2202 79.4413 34.045 78.608 33.6946C77.7794 33.3442 77.1307 32.8329 76.6619 32.1605C76.1979 31.4882 75.947 30.669 75.9091 29.7031H78.5014C78.5393 30.2098 78.6955 30.6312 78.9702 30.9673C79.2448 31.3035 79.6023 31.5545 80.0426 31.7202C80.4877 31.8859 80.9848 31.9688 81.5341 31.9688C82.107 31.9688 82.6089 31.8835 83.0398 31.7131C83.4754 31.5379 83.8163 31.2964 84.0625 30.9886C84.3087 30.6761 84.4342 30.3116 84.4389 29.8949C84.4342 29.5161 84.3229 29.2036 84.1051 28.9574C83.8873 28.7064 83.5819 28.4981 83.1889 28.3324C82.8007 28.1619 82.3461 28.0104 81.8253 27.8778L80.1705 27.4517C78.9725 27.1439 78.0256 26.6776 77.3295 26.0526C76.6383 25.4228 76.2926 24.5871 76.2926 23.5455C76.2926 22.6884 76.5246 21.938 76.9886 21.294C77.4574 20.6501 78.0942 20.1506 78.8991 19.7955C79.7041 19.4356 80.6155 19.2557 81.6335 19.2557C82.6657 19.2557 83.5701 19.4356 84.3466 19.7955C85.1278 20.1506 85.741 20.6454 86.1861 21.2798C86.6312 21.9096 86.8608 22.634 86.875 23.4531H84.3395ZM91.5607 34L88.4783 23.0909H91.0991L93.0167 30.7614H93.1161L95.0763 23.0909H97.6687L99.6289 30.7188H99.7354L101.625 23.0909H104.252L101.163 34H98.4854L96.44 26.6278H96.2908L94.2454 34H91.5607ZM106.048 34V23.0909H108.619V34H106.048ZM107.34 21.5426C106.933 21.5426 106.583 21.4077 106.289 21.1378C105.996 20.8632 105.849 20.5341 105.849 20.1506C105.849 19.7623 105.996 19.4332 106.289 19.1634C106.583 18.8887 106.933 18.7514 107.34 18.7514C107.752 18.7514 108.103 18.8887 108.391 19.1634C108.685 19.4332 108.832 19.7623 108.832 20.1506C108.832 20.5341 108.685 20.8632 108.391 21.1378C108.103 21.4077 107.752 21.5426 107.34 21.5426ZM111.262 34V23.0909H113.72V24.9446H113.848C114.075 24.3196 114.451 23.8319 114.977 23.4815C115.502 23.1264 116.13 22.9489 116.859 22.9489C117.598 22.9489 118.22 23.1288 118.727 23.4886C119.238 23.8437 119.598 24.3291 119.806 24.9446H119.92C120.162 24.3385 120.569 23.8556 121.142 23.4957C121.719 23.1312 122.404 22.9489 123.194 22.9489C124.198 22.9489 125.017 23.2661 125.652 23.9006C126.286 24.535 126.603 25.4607 126.603 26.6776V34H124.025V27.0753C124.025 26.3982 123.845 25.9034 123.485 25.5909C123.126 25.2737 122.685 25.1151 122.164 25.1151C121.544 25.1151 121.059 25.3092 120.708 25.6974C120.363 26.081 120.19 26.5805 120.19 27.196V34H117.669V26.9688C117.669 26.4053 117.498 25.9555 117.157 25.6193C116.821 25.2831 116.381 25.1151 115.836 25.1151C115.467 25.1151 115.131 25.2098 114.828 25.3991C114.525 25.5838 114.283 25.8466 114.103 26.1875C113.923 26.5237 113.833 26.9167 113.833 27.3665V34H111.262ZM139.07 24.0994C138.951 23.7159 138.788 23.3726 138.58 23.0696C138.376 22.7618 138.13 22.4991 137.841 22.2812C137.557 22.0634 137.23 21.9001 136.861 21.7912C136.491 21.6776 136.089 21.6207 135.653 21.6207C134.872 21.6207 134.176 21.8172 133.565 22.2102C132.955 22.6032 132.474 23.1809 132.124 23.9432C131.778 24.7008 131.605 25.6241 131.605 26.7131C131.605 27.8116 131.778 28.742 132.124 29.5043C132.469 30.2666 132.95 30.8466 133.565 31.2443C134.181 31.6373 134.896 31.8338 135.71 31.8338C136.449 31.8338 137.088 31.6918 137.628 31.4077C138.172 31.1236 138.591 30.7211 138.885 30.2003C139.179 29.6747 139.325 29.0592 139.325 28.3537L139.922 28.446H135.973V26.3864H141.875V28.1335C141.875 29.3788 141.61 30.456 141.08 31.3651C140.549 32.2741 139.82 32.9749 138.892 33.4673C137.964 33.955 136.899 34.1989 135.696 34.1989C134.356 34.1989 133.179 33.8982 132.166 33.2969C131.158 32.6908 130.369 31.8314 129.801 30.7188C129.238 29.6013 128.956 28.2756 128.956 26.7415C128.956 25.5672 129.122 24.5185 129.453 23.5952C129.789 22.6719 130.258 21.8883 130.859 21.2443C131.461 20.5956 132.166 20.1032 132.976 19.767C133.786 19.4261 134.666 19.2557 135.618 19.2557C136.423 19.2557 137.173 19.3741 137.869 19.6108C138.565 19.8428 139.183 20.1742 139.723 20.6051C140.268 21.036 140.715 21.5473 141.065 22.1392C141.416 22.7311 141.645 23.3845 141.754 24.0994H139.07ZM149.068 34.2131C148.002 34.2131 147.079 33.9787 146.298 33.5099C145.517 33.0412 144.911 32.3854 144.48 31.5426C144.054 30.6998 143.841 29.715 143.841 28.5881C143.841 27.4612 144.054 26.474 144.48 25.6264C144.911 24.7789 145.517 24.1207 146.298 23.652C147.079 23.1832 148.002 22.9489 149.068 22.9489C150.133 22.9489 151.056 23.1832 151.838 23.652C152.619 24.1207 153.223 24.7789 153.649 25.6264C154.08 26.474 154.295 27.4612 154.295 28.5881C154.295 29.715 154.08 30.6998 153.649 31.5426C153.223 32.3854 152.619 33.0412 151.838 33.5099C151.056 33.9787 150.133 34.2131 149.068 34.2131ZM149.082 32.1534C149.66 32.1534 150.143 31.9948 150.531 31.6776C150.919 31.3556 151.208 30.9247 151.397 30.3849C151.592 29.8452 151.689 29.2438 151.689 28.581C151.689 27.9134 151.592 27.3097 151.397 26.7699C151.208 26.2254 150.919 25.7921 150.531 25.4702C150.143 25.1482 149.66 24.9872 149.082 24.9872C148.49 24.9872 147.998 25.1482 147.605 25.4702C147.217 25.7921 146.925 26.2254 146.731 26.7699C146.542 27.3097 146.447 27.9134 146.447 28.581C146.447 29.2438 146.542 29.8452 146.731 30.3849C146.925 30.9247 147.217 31.3556 147.605 31.6776C147.998 31.9948 148.49 32.1534 149.082 32.1534ZM159.616 34.2202C158.925 34.2202 158.303 34.0971 157.749 33.8509C157.199 33.5999 156.764 33.2306 156.442 32.7429C156.125 32.2552 155.966 31.6539 155.966 30.9389C155.966 30.3234 156.08 29.8144 156.307 29.4119C156.534 29.0095 156.844 28.6875 157.237 28.446C157.63 28.2045 158.073 28.0223 158.565 27.8991C159.063 27.7713 159.576 27.679 160.107 27.6222C160.746 27.5559 161.264 27.4967 161.662 27.4446C162.06 27.3878 162.348 27.3026 162.528 27.1889C162.713 27.0705 162.805 26.8883 162.805 26.642V26.5994C162.805 26.0644 162.647 25.6501 162.33 25.3565C162.012 25.063 161.555 24.9162 160.959 24.9162C160.329 24.9162 159.83 25.0535 159.46 25.3281C159.096 25.6027 158.849 25.9271 158.722 26.3011L156.321 25.9602C156.51 25.2973 156.823 24.7434 157.259 24.2983C157.694 23.8485 158.227 23.5123 158.857 23.2898C159.486 23.0625 160.182 22.9489 160.945 22.9489C161.47 22.9489 161.993 23.0104 162.514 23.1335C163.035 23.2566 163.511 23.4602 163.942 23.7443C164.373 24.0237 164.718 24.4048 164.979 24.8878C165.244 25.3707 165.376 25.9744 165.376 26.6989V34H162.905V32.5014H162.82C162.663 32.8045 162.443 33.0885 162.159 33.3537C161.88 33.6141 161.527 33.8248 161.101 33.9858C160.679 34.142 160.185 34.2202 159.616 34.2202ZM160.284 32.331C160.8 32.331 161.248 32.2292 161.626 32.0256C162.005 31.8172 162.296 31.5426 162.5 31.2017C162.708 30.8608 162.812 30.4891 162.812 30.0866V28.8011C162.732 28.8674 162.595 28.929 162.401 28.9858C162.211 29.0426 161.998 29.0923 161.761 29.1349C161.525 29.1776 161.29 29.2154 161.058 29.2486C160.826 29.2817 160.625 29.3101 160.455 29.3338C160.071 29.3859 159.728 29.4711 159.425 29.5895C159.122 29.7079 158.883 29.8736 158.707 30.0866C158.532 30.295 158.445 30.5649 158.445 30.8963C158.445 31.3698 158.617 31.7273 158.963 31.9688C159.309 32.2102 159.749 32.331 160.284 32.331ZM170.533 19.4545V34H167.962V19.4545H170.533ZM181.799 25.9744L179.455 26.2301C179.389 25.9934 179.273 25.7708 179.107 25.5625C178.946 25.3542 178.728 25.1861 178.453 25.0582C178.179 24.9304 177.843 24.8665 177.445 24.8665C176.91 24.8665 176.46 24.9825 176.096 25.2145C175.736 25.4465 175.558 25.7472 175.563 26.1165C175.558 26.4337 175.674 26.6918 175.911 26.8906C176.152 27.0895 176.55 27.2528 177.104 27.3807L178.965 27.7784C179.997 28.0009 180.764 28.3537 181.266 28.8366C181.773 29.3196 182.028 29.9517 182.033 30.733C182.028 31.4195 181.827 32.0256 181.429 32.5511C181.036 33.072 180.489 33.4792 179.789 33.7727C179.088 34.0663 178.283 34.2131 177.374 34.2131C176.039 34.2131 174.964 33.9337 174.15 33.375C173.335 32.8116 172.85 32.0279 172.694 31.0241L175.201 30.7827C175.314 31.2751 175.556 31.6468 175.925 31.8977C176.294 32.1487 176.775 32.2741 177.367 32.2741C177.978 32.2741 178.468 32.1487 178.837 31.8977C179.211 31.6468 179.398 31.3366 179.398 30.9673C179.398 30.6548 179.277 30.3968 179.036 30.1932C178.799 29.9896 178.43 29.8333 177.928 29.7244L176.067 29.3338C175.021 29.116 174.247 28.7491 173.745 28.233C173.243 27.7121 172.994 27.054 172.999 26.2585C172.994 25.5862 173.176 25.0038 173.546 24.5114C173.92 24.0142 174.438 23.6307 175.101 23.3608C175.769 23.0862 176.538 22.9489 177.409 22.9489C178.688 22.9489 179.694 23.2211 180.428 23.7656C181.167 24.3101 181.623 25.0464 181.799 25.9744Z" fill="white"/>
</svg>
