<svg width="61" height="61" viewBox="0 0 61 61" fill="none" xmlns="http://www.w3.org/2000/svg">
<circle cx="30.5" cy="30.5" r="30.5" fill="#014691"/>
<path fill-rule="evenodd" clip-rule="evenodd" d="M50.2354 30.5001C50.2354 31.9864 49.2541 33.204 48.0095 33.3117L47.83 33.3194L18.8209 33.3187L28.4302 45.5022C29.332 46.6455 29.2723 48.4292 28.2968 49.4862C27.3727 50.4876 25.9582 50.4775 25.0451 49.5015L24.8977 49.3299L11.2916 32.0794C10.5891 31.1887 10.5891 29.8114 11.2916 28.9208L24.8977 11.6703C25.7995 10.5269 27.3214 10.4569 28.2968 11.5139C29.221 12.5153 29.3232 14.1689 28.5646 15.3123L28.4302 15.498L18.8219 27.6802L47.83 27.6807C49.1584 27.6807 50.2354 28.943 50.2354 30.5001Z" fill="white"/>
</svg>
