<svg width="61" height="61" viewBox="0 0 61 61" fill="none" xmlns="http://www.w3.org/2000/svg">
<circle cx="30.5" cy="30.5" r="30.5" fill="#0B3D91"/>
<path fill-rule="evenodd" clip-rule="evenodd" d="M50.2354 30.4999C50.2354 31.9862 49.2541 33.2039 48.0095 33.3115L47.83 33.3193L18.8209 33.3186L28.4302 45.502C29.332 46.6454 29.2723 48.4291 28.2968 49.4861C27.3727 50.4875 25.9582 50.4773 25.0451 49.5013L24.8977 49.3298L11.2916 32.0793C10.5891 31.1886 10.5891 29.8113 11.2916 28.9206L24.8977 11.6701C25.7995 10.5268 27.3214 10.4568 28.2968 11.5138C29.221 12.5151 29.3232 14.1687 28.5646 15.3122L28.4302 15.4978L18.8219 27.6801L47.83 27.6806C49.1584 27.6806 50.2354 28.9429 50.2354 30.4999Z" fill="white"/>
</svg>
