<svg width="35" height="35" viewBox="0 0 35 35" fill="none" xmlns="http://www.w3.org/2000/svg">
<g clip-path="url(#clip0_316_451)">
<path d="M16.471 0.00976738C15.7701 0.0677211 15.5603 0.0897987 15.1188 0.147752C10.1237 0.81008 5.56746 3.68569 2.77465 7.94114C1.36168 10.0965 0.506175 12.3373 0.0867005 14.9922L0.0121886 15.4613L0.00390954 17.3572C-0.00712926 19.4353 -0.00712925 19.4684 0.177771 20.5254C0.575167 22.8187 1.49139 25.1175 2.79673 27.0935C3.83161 28.6582 5.14523 30.0822 6.65203 31.2661C9.31238 33.3607 12.4778 34.6136 15.9605 34.9503C16.6587 35.0166 18.3808 35.0166 19.079 34.9503C22.2609 34.6412 25.0923 33.6064 27.6699 31.8043C29.0994 30.8025 30.54 29.4116 31.6108 27.9904C33.2666 25.7964 34.3925 23.2106 34.8644 20.5254C35.1432 18.933 35.1984 17.2331 35.0273 15.6269C34.3649 9.43966 30.391 4.02513 24.6536 1.48897C22.9287 0.72453 21.2177 0.274699 19.2169 0.059442C18.8278 0.0180465 16.816 -0.0178296 16.471 0.00976738ZM18.9548 3.67465C20.6906 3.86783 22.1533 4.29006 23.6877 5.04346C26.5081 6.42607 28.7517 8.6835 30.1205 11.515C31.2768 13.9104 31.7101 16.6011 31.3707 19.2835C31.0312 21.9687 29.8501 24.5711 28.0342 26.6326C26.911 27.9076 25.5615 28.9728 24.0299 29.7924C22.6721 30.5182 20.9418 31.0674 19.3632 31.2716C18.1821 31.4262 16.8574 31.4262 15.6762 31.2716C11.9782 30.7915 8.57554 28.7962 6.31534 25.7826C4.69816 23.6245 3.77366 21.1215 3.58048 18.3866C3.54184 17.8153 3.56116 16.648 3.62464 16.0823C3.80402 14.4126 4.24557 12.8838 4.97689 11.4046C5.87379 9.58869 7.12394 8.01566 8.67489 6.75723C10.924 4.92755 13.5734 3.87335 16.4986 3.63877C16.9705 3.60014 18.4801 3.62221 18.9548 3.67465Z" fill="white"/>
<path d="M16.7745 6.78212C13.7084 7.01117 10.9543 8.46277 9.05006 10.8527C7.71713 12.5223 6.92233 14.5507 6.75399 16.7005C6.70984 17.28 6.73467 18.3066 6.80919 18.8558C7.07688 20.8511 7.83303 22.6228 9.09698 24.2069C9.4033 24.596 10.2671 25.468 10.6507 25.7799C12.2513 27.0825 14.0727 27.869 16.1673 28.1588C16.5978 28.2167 17.9446 28.2415 18.433 28.2001C20.7291 27.9987 22.8651 27.099 24.5982 25.6005C24.957 25.2887 25.5862 24.6457 25.8842 24.2786C27.1978 22.6725 27.9954 20.7904 28.2548 18.6764C28.3128 18.2183 28.321 17.0482 28.2714 16.5321C28.0948 14.6997 27.4987 13.0301 26.4776 11.515C24.8521 9.10578 22.2525 7.41961 19.3962 6.92286C18.6262 6.78764 17.5003 6.72692 16.7745 6.78212ZM18.5959 10.2428C21.8523 10.7478 24.3581 13.2702 24.8217 16.5101C24.8907 16.9847 24.8907 18.0472 24.8245 18.4915C24.4989 20.6303 23.3674 22.4158 21.5846 23.6052C21.2038 23.8619 20.5028 24.2179 20.0751 24.3752C18.4413 24.9768 16.584 24.9768 14.9641 24.3752C14.5777 24.2317 13.9127 23.9033 13.5787 23.688C12.6515 23.0975 11.8125 22.2502 11.2302 21.3119C10.2561 19.7472 9.92213 17.7878 10.3168 15.9581C10.8439 13.5185 12.6128 11.4902 14.9696 10.6236C15.494 10.4304 16.0625 10.2925 16.6641 10.2152C17.056 10.1655 18.1985 10.1821 18.5959 10.2428Z" fill="white"/>
<path d="M17.1333 13.3391C16.0046 13.4743 15.0966 13.9379 14.3653 14.7548C13.8934 15.2819 13.565 15.9387 13.4022 16.6811C13.3166 17.0785 13.3139 17.9064 13.4022 18.3065C13.5898 19.1648 13.9458 19.8216 14.553 20.4288C15.5713 21.4498 16.9456 21.8666 18.3614 21.5878C19.1589 21.4278 19.882 21.0359 20.4891 20.4315C21.099 19.8189 21.4495 19.1731 21.6371 18.3065C21.7254 17.9064 21.7254 17.0757 21.6371 16.6811C21.2646 14.9949 19.9951 13.7365 18.331 13.4053C18.0661 13.3529 17.3541 13.3115 17.1333 13.3391Z" fill="white"/>
</g>
<defs>
<clipPath id="clip0_316_451">
<rect width="35" height="35" fill="white"/>
</clipPath>
</defs>
</svg>
